<svg xmlns="http://www.w3.org/2000/svg" viewBox="0 0 379.3 323.9"><path d="M339.3 172.2c-.3 7.5-1.2 14.9-3 22.2-11.8 47.7-39.4 82.7-84 103.8-16.1 7.7-33.2 12.3-51.1 13.4-2.1.1-4.3.3-6.4.4-5.4-.1-10.8-.1-16.2-.2-.4-.1-.9-.2-1.3-.2-8.9-.6-17.7-2-26.3-4.5-50.1-14.5-84.6-46.2-103-95-4.3-11.3-7-23-7.9-35.1-.1-1.9-.3-3.7-.4-5.6.1-7.3.2-14.7.2-22l.3-1.5c.3-9.5 2.4-18.7 5.1-27.7 12-40.3 36.7-70.5 73.5-90.7 15.3-8.4 31.6-13.7 48.9-16.3 3-.4 5.9-.9 8.9-1.4 7.7.1 15.3.2 23 .2.7.1 1.4.3 2.1.3 6.9.3 13.8 1.1 20.6 2.7 39.3 9.2 70.2 30.6 92.6 64 13.6 20.2 21.5 42.6 24.1 66.9.3 2.9.5 5.8.8 8.7-.1 5.1-.1 10.2-.2 15.3-.1.8-.2 1.6-.3 2.3zM190.9 41.8C125.8 41 70.2 93.2 69.5 161c-.7 66 52.8 120.2 118.5 120.9 66.1.7 120.5-51.7 121.6-118.8.3-66.8-52.9-120.5-118.7-121.3zm94.8 108.3c6.8.4 12.2 6.9 11.7 14.1-.5 6.8-6.8 12.3-13 11.5-8.1-.5-13.1-5.6-12.6-13 .5-8 6.1-13 13.9-12.6zm-54.6 50.1c-6.7-3.1-13.2-6.7-19.7-10.1-3.2-1.7-6.5-3.3-9.6-5.1-1.4-.8-2.6-.7-4-.2-7.5 2.6-14.6 1.7-21.2-2.4-7.6-4.8-11-12-11.2-20.1.2-7.3 2.4-12.9 7.2-17.4 1.4-1.3 2-2.7 2-4.6.3-20.5.7-41 .9-61.5 0-4.7 2.1-8.1 5.2-11.2 5.4-5.4 18.1-5.5 23.3 4.4 1.8 3.4 1.6 7.2 1.6 10.9.1 9.5 0 19.1 0 28.6v30.4c0 1.2.5 2 1.3 2.9 2.9 3.1 5 6.7 6.2 10.7.4 1.3 1.1 2.1 2.3 2.7 10 5.2 19.9 10.4 29.9 15.6 8.3 4.3 11 17.2 1.9 24.6-4.9 4.1-10.6 4.4-16.1 1.8zm-137-26.4c-7.3-.1-12.9-5.8-12.8-13.2.1-7 5.8-12.6 12.9-12.5 7.4.1 13.2 5.9 13.1 13.1-.1 7.1-5.9 12.7-13.2 12.6zm94.6 70.3c7.2.2 12.7 6.2 12.6 13.8-.1 6.4-6.4 12.3-13.1 12.2-7.2-.2-12.9-6.1-12.7-13.3.1-7 6.2-12.8 13.2-12.7z" fill-rule="evenodd" clip-rule="evenodd" fill="#e31e25"/></svg>