<svg xmlns="http://www.w3.org/2000/svg" viewBox="0 0 192 223.7"><path d="M95.5 34.5c-1.4 7.9-3.7 15.3-3.7 15.3-1.1 6.6-10.4 13-17 13l-11.9-1c-11.8-1.1-26 12.9-26 28.1V134c0 15.1 14.2 29.1 26 28l11.9-1c6.6 0 15.9 6.4 17 13 0 0 2.3 7.4 3.7 15.3 1.6 9 2.3 14.7 2.3 14.7 1.1 6.6-3.1 13.9-10 16 0 0-5.7 2.7-11.7 3.4-6.4.8-13.1-.4-13.1-.4-40.6-6-63-46.2-63-111C0 47 22.4 6.7 63 .7c0 0 6.7-1.2 13.2-.4 5.9.7 11.6 3.4 11.6 3.4 6.9 2.1 11.1 9.4 10 16 0 0-.7 5.7-2.3 14.8zm92.7 84.3L157 150c-.7.7-1.9 1-3 1-2.2 0-4-1.8-4-4v-21c0-2.2-1.8-4-4-4h-29c-2.8 0-5-2.2-5-5v-10c0-2.8 2.2-5 5-5h29c2.2 0 4-1.8 4-4V77c0-2.2 1.8-4 4-4 1.1 0 2.3.3 3 1l31.2 31.2c2 2.3 3.8 3.9 3.8 6.8s-1.7 4.6-3.8 6.8z" fill="#fff"/></svg>