<?xml version="1.0" encoding="utf-8"?>
<!-- Generator: Adobe Illustrator 19.1.0, SVG Export Plug-In . SVG Version: 6.00 Build 0)  -->
<svg version="1.1" id="Слой_1" xmlns="http://www.w3.org/2000/svg" xmlns:xlink="http://www.w3.org/1999/xlink" x="0px" y="0px"
	 viewBox="0 0 360 377" style="enable-background:new 0 0 360 377;" xml:space="preserve">
<style type="text/css">
	.st0{fill-rule:evenodd;clip-rule:evenodd;fill:#e91b1b;}
</style>
<path class="st0" d="M294.7,217.6L294.7,217.6l-101.2,152c-2.8,4.4-7.8,7.4-13.5,7.4s-10.6-2.9-13.5-7.4l-101.2-152h0
	C50,195.2,41,168.2,41,139C41,62.2,103.2,0,180,0s139,62.2,139,139C319,168.2,310,195.2,294.7,217.6L294.7,217.6z M180,60
	c-43.6,0-79,35.4-79,79c0,43.6,35.4,79,79,79c43.6,0,79-35.4,79-79C259,95.4,223.6,60,180,60L180,60z"/>
</svg>
