<?xml version="1.0" encoding="utf-8"?>
<!-- Generator: Adobe Illustrator 23.0.2, SVG Export Plug-In . SVG Version: 6.00 Build 0)  -->
<svg version="1.1" id="Слой_1" xmlns="http://www.w3.org/2000/svg" xmlns:xlink="http://www.w3.org/1999/xlink" x="0px" y="0px"
	 viewBox="0 0 379.3 323.9" style="enable-background:new 0 0 379.3 323.9;" xml:space="preserve">
<style type="text/css">
	.st0{fill-rule:evenodd;clip-rule:evenodd;fill:#e31e25;}
</style>
<path class="st0" d="M339.3,172.2c-0.3,7.5-1.2,14.9-3,22.2c-11.8,47.7-39.4,82.7-84,103.8c-16.1,7.7-33.2,12.3-51.1,13.4
	c-2.1,0.1-4.3,0.3-6.4,0.4c-5.4-0.1-10.8-0.1-16.2-0.2c-0.4-0.1-0.9-0.2-1.3-0.2c-8.9-0.6-17.7-2-26.3-4.5
	c-50.1-14.5-84.6-46.2-103-95c-4.3-11.3-7-23-7.9-35.1c-0.1-1.9-0.3-3.7-0.4-5.6c0.1-7.3,0.2-14.7,0.2-22c0.1-0.5,0.2-1,0.3-1.5
	c0.3-9.5,2.4-18.7,5.1-27.7C57.3,79.9,82,49.7,118.8,29.5c15.3-8.4,31.6-13.7,48.9-16.3c3-0.4,5.9-0.9,8.9-1.4
	c7.7,0.1,15.3,0.2,23,0.2c0.7,0.1,1.4,0.3,2.1,0.3c6.9,0.3,13.8,1.1,20.6,2.7c39.3,9.2,70.2,30.6,92.6,64
	c13.6,20.2,21.5,42.6,24.1,66.9c0.3,2.9,0.5,5.8,0.8,8.7c-0.1,5.1-0.1,10.2-0.2,15.3C339.5,170.7,339.4,171.5,339.3,172.2
	L339.3,172.2z M190.9,41.8C125.8,41,70.2,93.2,69.5,161c-0.7,66,52.8,120.2,118.5,120.9c66.1,0.7,120.5-51.7,121.6-118.8
	C309.9,96.3,256.7,42.6,190.9,41.8L190.9,41.8z M285.7,150.1c6.8,0.4,12.2,6.9,11.7,14.1c-0.5,6.8-6.8,12.3-13,11.5
	c-8.1-0.5-13.1-5.6-12.6-13C272.3,154.7,277.9,149.7,285.7,150.1L285.7,150.1z M231.1,200.2c-6.7-3.1-13.2-6.7-19.7-10.1
	c-3.2-1.7-6.5-3.3-9.6-5.1c-1.4-0.8-2.6-0.7-4-0.2c-7.5,2.6-14.6,1.7-21.2-2.4c-7.6-4.8-11-12-11.2-20.1c0.2-7.3,2.4-12.9,7.2-17.4
	c1.4-1.3,2-2.7,2-4.6c0.3-20.5,0.7-41,0.9-61.5c0-4.7,2.1-8.1,5.2-11.2c5.4-5.4,18.1-5.5,23.3,4.4c1.8,3.4,1.6,7.2,1.6,10.9
	c0.1,9.5,0,19.1,0,28.6c0,10.1,0,20.3,0,30.4c0,1.2,0.5,2,1.3,2.9c2.9,3.1,5,6.7,6.2,10.7c0.4,1.3,1.1,2.1,2.3,2.7
	c10,5.2,19.9,10.4,29.9,15.6c8.3,4.3,11,17.2,1.9,24.6C242.3,202.5,236.6,202.8,231.1,200.2L231.1,200.2z M94.1,173.8
	c-7.3-0.1-12.9-5.8-12.8-13.2c0.1-7,5.8-12.6,12.9-12.5c7.4,0.1,13.2,5.9,13.1,13.1C107.2,168.3,101.4,173.9,94.1,173.8L94.1,173.8z
	 M188.7,244.1c7.2,0.2,12.7,6.2,12.6,13.8c-0.1,6.4-6.4,12.3-13.1,12.2c-7.2-0.2-12.9-6.1-12.7-13.3
	C175.6,249.8,181.7,244,188.7,244.1L188.7,244.1z"/>
</svg>
