<?xml version="1.0" encoding="utf-8"?>
<!-- Generator: Adobe Illustrator 19.1.0, SVG Export Plug-In . SVG Version: 6.00 Build 0)  -->
<svg version="1.1" id="Слой_1" xmlns="http://www.w3.org/2000/svg" xmlns:xlink="http://www.w3.org/1999/xlink" x="0px" y="0px"
	 viewBox="0 0 192 223.7" style="enable-background:new 0 0 192 223.7;" xml:space="preserve">
	 <style type="text/css">
	.st0{fill:#e31e25;}
</style>
<path class="st0" d="M95.5,34.5c-1.4,7.9-3.7,15.3-3.7,15.3c-1.1,6.6-10.4,13-17,13l-11.9-1v0c-11.8-1.1-26,12.9-26,28.1V112h0v22
	c0,15.1,14.2,29.1,26,28v0l11.9-1c6.6,0,15.9,6.4,17,13c0,0,2.3,7.4,3.7,15.3c1.6,9,2.3,14.7,2.3,14.7c1.1,6.6-3.1,13.9-10,16
	c0,0-5.7,2.7-11.7,3.4C69.7,224.2,63,223,63,223c-40.6-6-63-46.2-63-111C0,47,22.4,6.7,63,0.7c0,0,6.7-1.2,13.2-0.4
	C82.1,1,87.8,3.7,87.8,3.7c6.9,2.1,11.1,9.4,10,16C97.8,19.7,97.1,25.4,95.5,34.5L95.5,34.5z M188.2,118.8L157,150
	c-0.7,0.7-1.9,1-3,1c-2.2,0-4-1.8-4-4v-15v0v-6c0-2.2-1.8-4-4-4h-5h-24c-2.8,0-5-2.2-5-5v-10c0-2.8,2.2-5,5-5h24h5c2.2,0,4-1.8,4-4
	v-7V77c0-2.2,1.8-4,4-4c1.1,0,2.3,0.3,3,1l31.2,31.2c2,2.3,3.8,3.9,3.8,6.8S190.3,116.6,188.2,118.8L188.2,118.8z"/>
</svg>
