<?xml version="1.0" encoding="utf-8"?>
<!-- Generator: Adobe Illustrator 19.1.0, SVG Export Plug-In . SVG Version: 6.00 Build 0)  -->
<svg version="1.1" id="Слой_1" xmlns="http://www.w3.org/2000/svg" xmlns:xlink="http://www.w3.org/1999/xlink" x="0px" y="0px"
	 viewBox="-217 305.9 160 230" style="enable-background:new -217 305.9 160 230;" xml:space="preserve">
<style type="text/css">
	.st0{fill:#e91b1b;}
</style>
<g>
	<path id="SVGID_1_" class="st0" d="M-85,535.9h-104c-15.5,0-28-12.5-28-28v-174c0-15.5,12.5-28,28-28h104c15.5,0,28,12.5,28,28v174
		C-57,523.4-69.5,535.9-85,535.9L-85,535.9z M-168,513.9c0,2.8,2.2,5,5,5h52c2.8,0,5-2.2,5-5v-15c0-2.8-2.2-5-5-5h-52
		c-2.8,0-5,2.2-5,5V513.9L-168,513.9z M-76,339.9c0-2.8-2.2-5-5-5h-112c-2.8,0-5,2.2-5,5v132c0,2.8,2.2,5,5,5h112c2.8,0,5-2.2,5-5
		V339.9L-76,339.9z"/>
</g>
</svg>
